<?xml version="1.0" encoding="UTF-8" standalone="no"?>
<svg xmlns:rdf="http://www.w3.org/1999/02/22-rdf-syntax-ns#" xmlns="http://www.w3.org/2000/svg" height="744pt" width="526pt" version="1.1" xmlns:cc="http://creativecommons.org/ns#" xmlns:dc="http://purl.org/dc/elements/1.1/" viewBox="0 0 526 744">
<path d="m284.27 0c15.13 7.45 13.93 28.07-4.2 27.57-4.47-12.83-15.411-24.011-29.891-23.291-13.42 0.76-24.96 10.88-27.37 24.08-20.75-0.42-47.37-2.83-61.68 15.85-6.02 7.65-1.289 16.891 2.111 24.581-11.89 5.45-29.85 13.76-25.47 29.95-0.77 6.59 0.42936 13.02 3.0594 19.08-17.56 5.62-44.92 17.19-38.13 39.78-0.5 2.8-1.1503 5.5697-1.8203 8.3297-18.22 7.14-44.619 19.731-39.159 43.611-23.481 10.1-51.951 19.93-61.721 46.01v9.1594c0.89 2.59 1.7706 5.1903 2.3906 7.8703-0.79 2.45-1.6106 4.8706-2.3906 7.3406v12.339c3.19 15.54 13.959 27.47 24.309 38.85-14.04 11.83-19.599 31.721-10.789 48.461 17.28 91.62 33.819 183.44 50.589 275.18 3.35 18.59 7.01 37.129 10.15 55.759 1.72 12.7 16.59 15.38 26.67 18.57 46 11.23 93.66 12.29 140.7 14.92h42.77c48.83-2.51 98.61-3.0897 146-16.58 8.27-3.04 20.85-6.2209 21.02-17.111 13.87-77.89 28.709-155.61 42.509-233.51 8.03-37.73 12.1-76.391 22.85-113.44 1.51-12.8-7.24-23.299-15.15-32.259 10.43-12.02 22.02-24.3 24.37-40.78v-9.15c-0.99-2.87-2.0094-5.67-2.9094-8.55 0.68-3.33 1.7094-6.5706 2.9094-9.7406v-6.4c-8.92-26.96-38.459-36.199-61.609-47.259 4.44-23.47-21.29-35.99-39.35-43.32-0.66-2.77-1.3213-5.52-1.8813-8.3 6.11-23.23-20.819-33.6-38.039-39.82 1.96-6.43 3.72-13.13 3.2-19.9 3.18-16.18-14.76-24.299-27.2-29.109 1.81-8.74 3.999-18.28 0.23904-26.83-5.71-29.289-38.19-39.77-64.29-41.94z" fill="#bb6933"/>
<path fill="#a40" d="m284.27 0h12.8c26.1 2.17 58.58 12.65 64.29 41.94-1.42 31.78-33.92 49.48-61.37 56.08-31.18 6.41-64.35 6.06-94.86-3.41-15.81-5.03-30.78-13.29-41.89-25.82-3.4-7.69-8.13-16.93-2.11-24.58 14.31-18.68 40.93-16.27 61.68-15.85 0.01 0.68 0.02 2.04 0.03 2.71-13.42 0.6-32.4 9.55-27.88 25.7 12.2 21.58 38.63 30.15 62.06 32.21 30.29 3.57 64.93 0.13 88.09-21.81 11.32-9.95 15.29-29.13 4.58-40.95-14.15-15.35-36.4-17.28-55.97-18.17 4.07 4.73 11.2 9.73 8.76 17.02-4.9 6.58-15.03 4.48-22.21 5.88-0.06-1.13-0.13-2.25-0.2-3.38 18.13 0.5 19.33-20.12 4.2-27.57z"/>
<path fill="#c83737" d="m222.81 28.36c2.41-13.2 13.95-23.32 27.37-24.08 14.48-0.72 25.42 10.46 29.89 23.29 0.07 1.13 0.14 2.25 0.2 3.38-2.37 32.14-56.11 32.68-57.43 0.12-0.01-0.67-0.02-2.03-0.03-2.71m18.03-16.97c-10.25 1.96-13.34 17.91-3.65 22.66 8.86 6.71 24.89-0.6 22.29-12.51-0.48-8.81-11.17-12.43-18.64-10.15z"/>
<path fill="#de8787" d="m240.84 11.39c7.47-2.28 18.16 1.34 18.64 10.15 2.6 11.91-13.43 19.22-22.29 12.51-9.69-4.75-6.6-20.7 3.65-22.66z"/>
<g>
<path fill="#520" d="m361.36 41.941c-1.42 31.78-33.919 49.48-61.369 56.08-31.18 6.41-64.351 6.0591-94.861-3.4109-0.2 0.31-0.6 0.95031-0.8 1.2703 25.87 15.54 57.631 16.611 86.891 14.391 27.45-3.07 57.08-15.44 69.9-41.5 1.81-8.74 3.9991-18.28 0.2391-26.83zm26.961 55.939c-18.9 20.64-48.971 23.981-75.111 28.341-50.15 5.07-102.68 5.61-150.69-11.75-9.42-3.13-17.71-8.7997-24.75-15.73-0.77 6.59 0.42938 13.02 3.0594 19.08 16.61 19.5 42.64 26.48 66.73 31.62 40.59 8.2 82.96 6.4494 123.25-2.6406 19.8-5.35 40.761-12.71 54.311-29.02 1.96-6.43 3.72-13.13 3.2-19.9zm-285.62 59.72c-0.5 2.8-1.1503 5.5697-1.8203 8.3297 0.73 16.81 15.62 28.5 29.15 36.05 38.44 20.82 83.08 26.21 126.13 27.87 45.34-0.83 92.521-4.5506 133.86-24.841 15.87-7.92 33.08-19.869 35.02-39.109-0.66-2.77-1.3212-5.52-1.8812-8.3-25.4 25.82-63.689 30.57-97.839 35.73-54.7 6.29-110.87 5.63-164.66-7-20.82-5.4-43.33-11.84-57.96-28.73zm360.65 53.159c-20.21 26.97-56.101 33.12-86.791 40.8-82.58 15.58-168.86 14.38-250.6-5.5297-23.32-6.75-48.849-14.99-64.039-35.15-7.31 19.54 7.7494 38.521 22.859 49.341 28.34 19.63 62.251 28.909 95.711 35.309 55.81 9.7 113.36 8.8703 169.1-0.92969 33.63-6.47 67.879-16.45 95.489-37.52 13.43-10.51 25.77-28.92 18.27-46.32zm-460.96 61.82c-0.79 2.45-1.6106 4.8706-2.3906 7.3406v12.339c3.19 15.54 13.959 27.47 24.309 38.85 17.16-12.04 44.011-5.4488 52.611 14.031 3.01 4.67 1.72 11.439 6.1 15.189 4.17-0.67 8.3791-1.0691 12.539-1.8391 1.18-14.53 11.321-26.411 24.581-31.841-41.13-10.75-90.15-18.08-117.75-54.07zm520.7 0.0406c-27.58 36.08-75.991 43.2-117.29 54.05 14 5.19 23.22 18.729 24.65 33.339 4.47-0.31 8.9703-0.84 13.47 0.3 1.8-27.3 34.879-45.009 57.709-29.209 10.43-12.02 22.02-24.3 24.37-40.78v-9.15c-0.99-2.87-2.0094-5.67-2.9094-8.55zm-156.91 60.1c-11.057 0.10569-21.968 2.5503-33.002 3.1891 5.4 7.29 8.5909 15.841 10.861 24.561 4.52-0.2 9.0294-0.42093 13.559-0.61093 0.62-10.41 5.7497-20.02 13.33-27.03-1.5863-0.0925-3.1689-0.12447-4.7485-0.10938zm-211.22 0.1c7.86 7.12 11.721 17.03 14.181 27.1 4.17 0.04 8.3294 0.36 12.509 0.5 2.54-8.2 4.7497-16.91 10.43-23.6-12.15-2.72-24.69-3.66-37.12-4zm104.46 6.1547c-3.4892 0.0537-6.9728 0.30156-10.445 0.84531 4.64 6.14 4.2391 14.56 8.0891 20.72 4.23-0.16 8.4603-0.33031 12.72-0.42031 1.03-7.17 3.29-14.1 7.1-20.28-5.8188-0.50624-11.649-0.95508-17.464-0.86562z"/>
<path fill="#803300" d="m361.12 68.77c-12.82 26.06-42.45 38.43-69.9 41.5-29.26 2.22-61.021 1.1494-86.891-14.391 0.2-0.32 0.6-0.96031 0.8-1.2703-15.81-5.03-30.779-13.289-41.889-25.819-11.89 5.45-29.85 13.76-25.47 29.95 7.04 6.93 15.33 12.6 24.75 15.73 48.01 17.36 100.54 16.82 150.69 11.75 26.14-4.36 56.211-7.7006 75.111-28.341 3.18-16.18-14.76-24.299-27.2-29.109zm24 49.009c-13.55 16.31-34.511 23.67-54.311 29.02-40.29 9.09-82.66 10.841-123.25 2.6406-24.09-5.14-50.12-12.12-66.73-31.62-17.56 5.62-44.92 17.19-38.13 39.78 14.63 16.89 37.139 23.33 57.959 28.73 53.79 12.63 109.96 13.29 164.66 7 34.15-5.16 72.439-9.9097 97.839-35.73 6.11-23.23-20.819-33.6-38.039-39.82zm39.92 48.12c-1.94 19.24-19.15 31.189-35.02 39.109-41.34 20.29-88.521 24.011-133.86 24.841-43.05-1.66-87.69-7.0503-126.13-27.87-13.53-7.55-28.42-19.24-29.15-36.05-18.22 7.14-44.619 19.731-39.159 43.611-23.48 10.1-51.95 19.93-61.72 46.01v9.1594c0.89 2.59 1.7706 5.1903 2.3906 7.8703 27.6 35.99 76.62 43.32 117.75 54.07 11.99-3.09 24.679-1.0197 34.819 6.1703 12.43 0.34 24.97 1.28 37.12 4 15.26-16.64 43.631-14.99 56.891 3 9.26-1.45 18.599-0.78969 27.909 0.0203 12.98-17.96 40.74-19.531 56.3-3.9312 12.61-0.73 25.06-3.8197 37.75-3.0797 9.82-7.6 23-8.8394 34.87-6.1594 41.3-10.85 89.711-17.97 117.29-54.05 0.68-3.33 1.7094-6.5706 2.9094-9.7406v-6.4c-8.92-26.96-38.459-36.199-61.609-47.259 4.44-23.47-21.29-35.99-39.35-43.32zm38.309 44.859c7.5 17.4-4.8403 35.81-18.27 46.32-27.61 21.07-61.859 31.05-95.489 37.52-55.74 9.8-113.29 10.63-169.1 0.92969-33.46-6.4-67.371-15.679-95.711-35.309-15.11-10.82-30.169-29.801-22.859-49.341 15.19 20.16 40.719 28.4 64.039 35.15 81.74 19.91 168.02 21.11 250.6 5.5297 30.69-7.68 66.581-13.83 86.791-40.8z"/>
<path fill="#fc0" d="m44.306 325.06c-7.0539-0.0309-14.098 1.9066-19.997 6.0453-14.04 11.83-19.599 31.721-10.789 48.461 17.28 91.62 33.819 183.44 50.589 275.18 87.58 33.3 189.89 27.59 272.72-16.27 3.28-92.58 5.2709-185.34 7.2109-278.01-2.27-8.72-5.4609-17.271-10.861-24.561-15.56-15.6-43.32-14.029-56.3 3.9312-3.81 6.18-6.07 13.11-7.1 20.28-0.1 96.77-3.2197 194.01-4.1297 290.44-5.03-96.42-5.8706-193.38-8.5906-290.02-3.85-6.16-3.4491-14.58-8.0891-20.72-13.26-17.99-41.631-19.64-56.891-3-5.68 6.69-7.8897 15.4-10.43 23.6 2.79 96.51 6.2894 195.51 6.5094 290.43-5.8-96.94-14.629-194.25-19.019-290.93-2.46-10.07-6.3212-19.98-14.181-27.1-10.14-7.19-22.829-9.2603-34.819-6.1703-13.26 5.43-23.401 17.311-24.581 31.841 6.39 95.46 16.601 191.37 20.781 286.54-10.81-94.86-24.82-189.91-33.32-284.7-4.38-3.75-3.09-10.519-6.1-15.189-5.6438-12.784-19.148-20.018-32.614-20.077zm438.93 0.0953c-19.02-0.405-37.964 14.675-39.314 35.15-7.7 73.96-19.07 147.65-25.7 221.64 31.5-29.92 56.979-65.99 75.709-105.15 8.03-37.73 12.1-76.391 22.85-113.44 1.51-12.8-7.24-23.299-15.15-32.259-5.7075-3.95-12.056-5.8056-18.395-5.9406zm-88.803 0.22031c-8.4099 0.006-16.75 2.225-23.502 7.45-7.58 7.01-12.71 16.62-13.33 27.03-5.96 92.64-12.591 185.24-19.041 277.85 23.11-10.45 43.82-25.73 63.67-41.43 4.89-4.14 11.5-8.37 11.67-15.5 5.2-73.61 12-147.12 16.55-220.77-1.43-14.61-10.65-28.149-24.65-33.339-3.7094-0.83749-7.546-1.2932-11.369-1.2906z"/>
<path fill="#d4aa00" d="m95.559 358.49c-4.16 0.77-8.3691 1.1691-12.539 1.8391 8.5 94.79 22.51 189.84 33.32 284.7-4.18-95.17-14.391-191.08-20.781-286.54zm341.61 1.125c-2.2462 0.0288-4.4884 0.23876-6.7234 0.39376-4.55 73.65-11.35 147.16-16.55 220.77-0.17 7.13-6.7803 11.36-11.67 15.5-19.85 15.7-40.56 30.98-63.67 41.43 6.45-92.61 13.081-185.21 19.041-277.85-4.53 0.19-9.0394 0.41093-13.559 0.61093-1.94 92.67-3.9309 185.43-7.2109 278.01-82.83 43.86-185.14 49.57-272.72 16.27 3.35 18.59 7.01 37.129 10.15 55.759 1.72 12.7 16.59 15.38 26.67 18.57 46 11.23 93.66 12.29 140.7 14.92h42.77c48.83-2.51 98.61-3.0897 146-16.58 8.27-3.04 20.85-6.2209 21.02-17.111 13.87-77.89 28.709-155.61 42.509-233.51-18.73 39.16-44.209 75.23-75.709 105.15 6.63-73.99 18-147.68 25.7-221.64-2.25-0.57-4.5006-0.72251-6.7469-0.69376zm-268.03 0.30469c4.39 96.68 13.219 193.99 19.019 290.93-0.22-94.92-3.7194-193.92-6.5094-290.43-4.18-0.14-8.3394-0.46-12.509-0.5zm100.64 0.2c-4.26 0.09-8.4903 0.26031-12.72 0.42031 2.72 96.64 3.5606 193.6 8.5906 290.02 0.91-96.43 4.0297-193.67 4.1297-290.44z"/>
</g>
</svg>
